<mxfile host="app.diagrams.net" agent="Mozilla/5.0 (Macintosh; Intel Mac OS X 10_15_7) AppleWebKit/605.1.15 (KHTML, like Gecko) Version/18.3.1 Safari/605.1.15" version="26.1.1">
  <diagram name="Page-1" id="llNrKHP_y95c7TqMwU4k">
    <mxGraphModel dx="1006" dy="698" grid="1" gridSize="10" guides="1" tooltips="1" connect="1" arrows="1" fold="1" page="1" pageScale="1" pageWidth="850" pageHeight="1100" math="0" shadow="0">
      <root>
        <mxCell id="0" />
        <mxCell id="1" parent="0" />
        <mxCell id="4V3jqJ0XUG5aYk51Opal-12" style="edgeStyle=orthogonalEdgeStyle;rounded=0;orthogonalLoop=1;jettySize=auto;html=1;exitX=0.5;exitY=0.5;exitDx=0;exitDy=0;exitPerimeter=0;entryX=0;entryY=0.5;entryDx=0;entryDy=0;endArrow=none;startFill=0;" edge="1" parent="1" source="4V3jqJ0XUG5aYk51Opal-1" target="4V3jqJ0XUG5aYk51Opal-5">
          <mxGeometry relative="1" as="geometry" />
        </mxCell>
        <mxCell id="4V3jqJ0XUG5aYk51Opal-1" value="Broomer" style="shape=umlActor;verticalLabelPosition=bottom;verticalAlign=top;html=1;" vertex="1" parent="1">
          <mxGeometry x="140" y="290" width="30" height="60" as="geometry" />
        </mxCell>
        <mxCell id="4V3jqJ0XUG5aYk51Opal-4" value="Broomhilde" style="shape=umlFrame;whiteSpace=wrap;html=1;pointerEvents=0;" vertex="1" parent="1">
          <mxGeometry x="240" y="170" width="410" height="370" as="geometry" />
        </mxCell>
        <mxCell id="4V3jqJ0XUG5aYk51Opal-5" value="Sweap&lt;div&gt;(execute file organization)&lt;/div&gt;" style="ellipse;whiteSpace=wrap;html=1;" vertex="1" parent="1">
          <mxGeometry x="290" y="210" width="150" height="80" as="geometry" />
        </mxCell>
        <mxCell id="4V3jqJ0XUG5aYk51Opal-6" value="Set folders to clean" style="ellipse;whiteSpace=wrap;html=1;" vertex="1" parent="1">
          <mxGeometry x="260" y="430" width="150" height="80" as="geometry" />
        </mxCell>
        <mxCell id="4V3jqJ0XUG5aYk51Opal-7" value="Set organization strategy" style="ellipse;whiteSpace=wrap;html=1;" vertex="1" parent="1">
          <mxGeometry x="490" y="350" width="140" height="70" as="geometry" />
        </mxCell>
        <mxCell id="4V3jqJ0XUG5aYk51Opal-8" value="Extends" style="endArrow=block;endSize=16;endFill=0;html=1;rounded=0;exitX=0;exitY=0.5;exitDx=0;exitDy=0;entryX=1;entryY=0.5;entryDx=0;entryDy=0;" edge="1" parent="1" source="4V3jqJ0XUG5aYk51Opal-7" target="4V3jqJ0XUG5aYk51Opal-6">
          <mxGeometry width="160" relative="1" as="geometry">
            <mxPoint x="480" y="470" as="sourcePoint" />
            <mxPoint x="640" y="470" as="targetPoint" />
          </mxGeometry>
        </mxCell>
        <mxCell id="4V3jqJ0XUG5aYk51Opal-13" style="edgeStyle=orthogonalEdgeStyle;rounded=0;orthogonalLoop=1;jettySize=auto;html=1;exitX=0.5;exitY=0.5;exitDx=0;exitDy=0;exitPerimeter=0;entryX=0;entryY=0.5;entryDx=0;entryDy=0;endArrow=none;startFill=0;" edge="1" parent="1" source="4V3jqJ0XUG5aYk51Opal-1" target="4V3jqJ0XUG5aYk51Opal-6">
          <mxGeometry relative="1" as="geometry">
            <mxPoint x="165" y="330" as="sourcePoint" />
            <mxPoint x="300" y="260" as="targetPoint" />
          </mxGeometry>
        </mxCell>
        <mxCell id="4V3jqJ0XUG5aYk51Opal-14" style="edgeStyle=orthogonalEdgeStyle;rounded=0;orthogonalLoop=1;jettySize=auto;html=1;exitX=0.5;exitY=0.5;exitDx=0;exitDy=0;exitPerimeter=0;entryX=0;entryY=0.5;entryDx=0;entryDy=0;endArrow=none;startFill=0;" edge="1" parent="1" source="4V3jqJ0XUG5aYk51Opal-1" target="4V3jqJ0XUG5aYk51Opal-7">
          <mxGeometry relative="1" as="geometry">
            <mxPoint x="165" y="330" as="sourcePoint" />
            <mxPoint x="270" y="480" as="targetPoint" />
          </mxGeometry>
        </mxCell>
      </root>
    </mxGraphModel>
  </diagram>
</mxfile>
